<svg width="335.69374999999997px" height="141.2px" xmlns="http://www.w3.org/2000/svg" viewBox="82.15312500000002 4.400000000000006 335.69374999999997 141.2" style="background: rgba(0, 0, 0, 0);" preserveAspectRatio="xMidYMid"><defs><filter id="editing-hole" x="-100%" y="-100%" width="300%" height="300%"><feFlood flood-color="#000" result="black"></feFlood><feMorphology operator="dilate" radius="2" in="SourceGraphic" result="erode"></feMorphology><feGaussianBlur in="erode" stdDeviation="4" result="blur"></feGaussianBlur><feOffset in="blur" dx="2" dy="2" result="offset"></feOffset><feComposite operator="atop" in="offset" in2="black" result="merge"></feComposite><feComposite operator="in" in="merge" in2="SourceGraphic" result="inner-shadow"></feComposite></filter></defs><g filter="url(#editing-hole)"><g transform="translate(131.854989528656, 94.90500068664551)"><path d="M35.58-21.82L35.58-39.81L41.22-39.81L41.22 0L35.58 0L35.58-18.05L12.03-18.05L12.03 0L6.40 0L6.40-39.81L12.03-39.81L12.03-21.82L35.58-21.82ZM76.74-5.76L76.74-5.76L76.74-25.28L76.74-25.28Q76.74-26.50 76.38-26.88L76.38-26.88L76.38-26.88Q76.03-27.26 74.75-27.26L74.75-27.26L60.16-27.26L60.16-27.26Q58.88-27.26 58.53-26.88L58.53-26.88L58.53-26.88Q58.18-26.50 58.18-25.28L58.18-25.28L58.18-5.76L58.18-5.76Q58.18-4.48 58.53-4.13L58.53-4.13L58.53-4.13Q58.88-3.78 60.16-3.78L60.16-3.78L74.75-3.78L74.75-3.78Q76.03-3.78 76.38-4.13L76.38-4.13L76.38-4.13Q76.74-4.48 76.74-5.76ZM57.79-31.04L57.79-31.04L77.12-31.04L77.12-31.04Q82.18-31.04 82.18-25.98L82.18-25.98L82.18-5.06L82.18-5.06Q82.18 0 77.12 0L77.12 0L57.79 0L57.79 0Q52.74 0 52.74-5.06L52.74-5.06L52.74-25.98L52.74-25.98Q52.74-31.04 57.79-31.04ZM125.25-31.04L125.25-31.04L138.82-31.04L138.82-31.04Q143.87-31.04 143.87-25.98L143.87-25.98L143.87 0L138.37 0L138.37-25.28L138.37-25.28Q138.37-26.50 137.98-26.88L137.98-26.88L137.98-26.88Q137.60-27.26 136.38-27.26L136.38-27.26L123.90-27.26L123.90-27.26Q122.69-27.26 122.18-26.72L122.18-26.72L122.18-26.72Q121.66-26.18 121.66-24.96L121.66-24.96L121.66 0L116.16 0L116.16-25.28L116.16-25.28Q116.16-26.50 115.81-26.88L115.81-26.88L115.81-26.88Q115.46-27.26 114.18-27.26L114.18-27.26L100.74-27.26L100.74-27.26Q99.58-27.26 99.07-26.75L99.07-26.75L99.07-26.75Q98.56-26.24 98.56-25.02L98.56-25.02L98.56 0L93.06 0L93.06-31.04L98.56-31.04L98.56-28.99L98.56-28.99Q99.39-31.04 102.08-31.04L102.08-31.04L116.61-31.04L116.61-31.04Q120.26-31.04 121.28-28.42L121.28-28.42L121.28-28.42Q121.92-31.04 125.25-31.04ZM159.62-25.28L159.62-17.79L178.56-17.79L178.56-25.28L178.56-25.28Q178.56-26.50 178.18-26.88L178.18-26.88L178.18-26.88Q177.79-27.26 176.58-27.26L176.58-27.26L161.60-27.26L161.60-27.26Q160.38-27.26 160-26.88L160-26.88L160-26.88Q159.62-26.50 159.62-25.28L159.62-25.28ZM159.17-31.04L159.17-31.04L178.94-31.04L178.94-31.04Q184-31.04 184-25.98L184-25.98L184-14.02L159.62-14.02L159.62-5.76L159.62-5.76Q159.62-4.48 160-4.13L160-4.13L160-4.13Q160.38-3.78 161.60-3.78L161.60-3.78L176.38-3.78L176.38-3.78Q177.66-3.78 178.02-4.13L178.02-4.13L178.02-4.13Q178.37-4.48 178.37-5.76L178.37-5.76L178.37-8.77L183.81-8.77L183.81-5.06L183.81-5.06Q183.81 0 178.75 0L178.75 0L159.17 0L159.17 0Q154.11 0 154.11-5.06L154.11-5.06L154.11-25.98L154.11-25.98Q154.11-31.04 159.17-31.04ZM210.24-35.97L200.83-11.65L219.78-11.65L210.24-35.97ZM229.89 0L224.32 0L221.25-7.87L199.36-7.87L196.35 0L190.72 0L206.21-39.81L214.34-39.81L229.89 0Z" fill="#ccc"></path></g></g><style>text {
  font-size: 64px;
  font-family: Arial Black;
  dominant-baseline: central;
  text-anchor: middle;
}</style></svg>